<svg xmlns="http://www.w3.org/2000/svg" viewBox="0 0 100 100"><g data-name="ICON 04"><circle cx="18.33" cy="47.45" r="2.11"/><circle cx="24.66" cy="47.45" r="2.11"/><path d="M78.5 46.45H29.94a1 1 0 1 0 0 2H78.5a1 1 0 0 0 0-2zM45.25 30.88a1 1 0 0 0 .53.15.87.87 0 0 0 .44-.11l12.67-6.33a1 1 0 0 0 .56-.89 1 1 0 0 0-.56-.9L46.22 16.47a1 1 0 0 0-1 0 1 1 0 0 0-.47.85V30A1 1 0 0 0 45.25 30.88zM46.78 19l9.43 4.72-9.43 4.71z"/><path d="M50,38.42A14.73,14.73,0,1,0,35.28,23.7,14.74,14.74,0,0,0,50,38.42ZM50,11A12.73,12.73,0,1,1,37.28,23.7,12.74,12.74,0,0,1,50,11Z"/><path d="M84.31 3.17H15.69a5.22 5.22 0 0 0-5.22 5.22V47.45a5.22 5.22 0 0 0 5.22 5.22H84.31a5.22 5.22 0 0 0 5.22-5.22V8.39A5.22 5.22 0 0 0 84.31 3.17zm-68.62 2H84.31a3.22 3.22 0 0 1 3.22 3.22V42.23H12.47V8.39A3.22 3.22 0 0 1 15.69 5.17zm68.62 45.5H15.69a3.22 3.22 0 0 1-3.22-3.22V44.23H87.53v3.22A3.22 3.22 0 0 1 84.31 50.67zM52.75 68.82a5 5 0 0 0-4.88-4.1l-1.33-7.08A3.6 3.6 0 0 0 45 55.31a3.63 3.63 0 0 0-5.62 2.31l-17 9.45-5.54 1.05a7.86 7.86 0 0 0 .29 15.49L19 93.44a4.17 4.17 0 0 0 4.86 3.32h0a4.18 4.18 0 0 0 3.33-4.87l-1.77-9.36 19 1.61a3.64 3.64 0 0 0 3.05 1.67 4 4 0 0 0 .68-.06h0A3.64 3.64 0 0 0 51 81.5L49.7 74.42A5.06 5.06 0 0 0 52.75 68.82zM35.65 62L39.37 81.7 26.15 80.58l-2.27-12zM12.57 76.93a5.87 5.87 0 0 1 4.68-6.85L22 69.19l2.17 11.52h-.06l-4.67.88A5.87 5.87 0 0 1 12.57 76.93zM23.51 94.79a2.12 2.12 0 0 1-1.62-.33A2.17 2.17 0 0 1 21 93.07l-1.77-9.39.58-.11h0l1.31-.25 2.37-.45 1.77 9.39A2.16 2.16 0 0 1 23.51 94.79zM41.43 81.88L37.49 61l2-1.14.28 1.49 3.91 20.75zm6.33 1.9a1.65 1.65 0 0 1-1.92-1.3L43.6 70.55 41.35 58.61a1.64 1.64 0 0 1 1.31-1.91 1.53 1.53 0 0 1 .3 0A1.66 1.66 0 0 1 44.57 58l1.5 8h0l1.49 7.92h0l1.51 8A1.64 1.64 0 0 1 47.76 83.78zm2.55-12.32a3 3 0 0 1-1 .91l-1.06-5.6a3 3 0 0 1 2.06 4.69zM88.33 57.67L64.64 62.54a1 1 0 0 0-.8 1V85a7 7 0 1 0 2 4.88v-17l21.69-4.46V80.08a7 7 0 1 0 2 4.88V58.65a1 1 0 0 0-1.2-1zM58.87 94.83a5 5 0 1 1 5-5A5 5 0 0 1 58.87 94.83zm23.69-4.9a5 5 0 1 1 5-5A5 5 0 0 1 82.56 89.93zM65.84 64.34l21.69-4.46v6.54L65.84 70.88z"/></g></svg>